# xmcd
#
# Track frame offsets: 
#        150
#        15470
#        25779
#        40651
#        51467
#        69705
#        81653
#        92903
#        105291
#        117480
#
# Disc length: 1862 seconds
#
# Revision: 0
# Processed by: cddbd v1.5.2PL0 Copyright (c) Steve Scherf et al.
# Submitted via: ExactAudioCopy v0.95b4
#
DISCID=8007440a
DTITLE=Mic Harrison and The High Score - Push Me On Home
DYEAR=2008
DGENRE=Rock
TTITLE0=Mighty Good Wine
TTITLE1=Hey Driver
TTITLE2=Willfully
TTITLE3=Mandie McManus
TTITLE4=The Only Road
TTITLE5=Tomorrows Bloodshot Eyes
TTITLE6=Saving The Widow
TTITLE7=Devils On Horses
TTITLE8=Long Time
TTITLE9=Wiser The Whiskey
EXTD=
EXTT0=
EXTT1=
EXTT2=
EXTT3=
EXTT4=
EXTT5=
EXTT6=
EXTT7=
EXTT8=
EXTT9=
PLAYORDER=
